<?xml version="1.0" encoding="utf-8"?>
<!-- Generator: Adobe Illustrator 17.0.0, SVG Export Plug-In . SVG Version: 6.00 Build 0)  -->
<!DOCTYPE svg PUBLIC "-//W3C//DTD SVG 1.1//EN" "http://www.w3.org/Graphics/SVG/1.1/DTD/svg11.dtd">
<svg version="1.1" xmlns="http://www.w3.org/2000/svg" xmlns:xlink="http://www.w3.org/1999/xlink" x="0px" y="0px"
	 width="198.583px" height="24.167px" viewBox="0 0 198.583 24.167" enable-background="new 0 0 198.583 24.167"
	 xml:space="preserve">
<g id="Layer_2" display="none">
	<g display="inline">
		<g>
			<g>
				<path id="SVGID_1_" fill="#070707" d="M8.974,21.282c3.288-2.475,5.787-5.833,5.777-10.791c0.009-0.483,0.389-0.875,0.866-0.875
					c0.473,0,0.857,0.397,0.857,0.865C16.466,15.374,13.244,19.539,8.974,21.282z M12.881,10.587c0,6.213-5.087,11.25-11.363,11.25
					c-0.295,0-0.587-0.011-0.877-0.033c2.058,1.256,4.487,1.977,7.126,1.977c6.88,0,12.809-5.708,12.873-13.889
					c-0.005-0.083,0-4.444-4.166-4.444c-2.52,0-3.593,1.517-3.593,4.155C12.881,9.714,12.881,10.354,12.881,10.587z"/>
			</g>
			<g>
				<defs>
					<path id="SVGID_2_" d="M8.974,21.282c3.288-2.475,5.787-5.833,5.777-10.791c0.009-0.483,0.389-0.875,0.866-0.875
						c0.473,0,0.857,0.397,0.857,0.865C16.466,15.374,13.244,19.539,8.974,21.282z M12.881,10.587c0,6.213-5.087,11.25-11.363,11.25
						c-0.295,0-0.587-0.011-0.877-0.033c2.058,1.256,4.487,1.977,7.126,1.977c6.88,0,12.809-5.708,12.873-13.889
						c-0.005-0.083,0-4.444-4.166-4.444c-2.52,0-3.593,1.517-3.593,4.155C12.881,9.714,12.881,10.354,12.881,10.587z"/>
				</defs>
				<use xlink:href="#SVGID_2_"  overflow="visible" fill="#070707"/>
				<clipPath id="SVGID_4_">
					<use xlink:href="#SVGID_2_"  overflow="visible"/>
				</clipPath>
				<g clip-path="url(#SVGID_4_)">
					<g>
						<rect id="SVGID_3_" x="-76.026" y="-63.718" fill="#070707" width="319.167" height="269.167"/>
					</g>
					<g>
						<defs>
							<rect id="SVGID_6_" x="-76.026" y="-63.718" width="319.167" height="269.167"/>
						</defs>
						<use xlink:href="#SVGID_6_"  overflow="visible" fill="#070707"/>
						<clipPath id="SVGID_8_">
							<use xlink:href="#SVGID_6_"  overflow="visible"/>
						</clipPath>
						<rect x="-3.526" y="1.282" clip-path="url(#SVGID_8_)" fill="#070707" width="28.333" height="26.667"/>
					</g>
				</g>
			</g>
			<g>
				<g>
					<g>
						<path id="SVGID_5_" fill="#070707" d="M17.888,1.608C16.789,3.582,16.522,5.97,16.984,8.2l0.711,0.41
							c-0.002-1.905,0.464-3.876,1.457-5.707l0.401-0.681c0.252-0.437,0.323-1.012-0.229-1.331
							C18.557,0.449,17.888,1.608,17.888,1.608z"/>
					</g>
					<g>
						<defs>
							<path id="SVGID_10_" d="M17.888,1.608C16.789,3.582,16.522,5.97,16.984,8.2l0.711,0.41c-0.002-1.905,0.464-3.876,1.457-5.707
								l0.401-0.681c0.252-0.437,0.323-1.012-0.229-1.331C18.557,0.449,17.888,1.608,17.888,1.608z"/>
						</defs>
						<use xlink:href="#SVGID_10_"  overflow="visible" fill="#070707"/>
						<clipPath id="SVGID_12_">
							<use xlink:href="#SVGID_10_"  overflow="visible"/>
						</clipPath>
						<g clip-path="url(#SVGID_12_)">
							<g>
								<rect id="SVGID_7_" x="-76.026" y="-63.718" fill="#070707" width="319.167" height="269.167"/>
							</g>
							<g>
								<defs>
									
										<rect id="SVGID_14_" x="-164.95" y="-220.214" transform="matrix(0.866 0.5 -0.5 0.866 -43.537 -8.7883)" width="319.16" height="269.161"/>
								</defs>
								<use xlink:href="#SVGID_14_"  overflow="visible" fill="#070707"/>
								<clipPath id="SVGID_16_">
									<use xlink:href="#SVGID_14_"  overflow="visible"/>
								</clipPath>
								
									<rect x="12.293" y="-3.387" transform="matrix(0.866 0.5 -0.5 0.866 4.6936 -8.4565)" clip-path="url(#SVGID_16_)" fill="#070707" width="11.667" height="15.833"/>
							</g>
						</g>
					</g>
					<g>
						<g>
							<g>
								<polygon id="SVGID_9_" fill="#070707" points="125.641,6.282 125.641,12.949 138.974,12.949 138.974,6.282 140.641,6.282 
									140.641,22.115 138.974,22.115 138.974,14.615 125.641,14.615 125.641,22.115 123.974,22.115 123.974,6.282 								"/>
							</g>
							<g>
								<defs>
									<polygon id="SVGID_18_" points="125.641,6.282 125.641,12.949 138.974,12.949 138.974,6.282 140.641,6.282 140.641,22.115 
										138.974,22.115 138.974,14.615 125.641,14.615 125.641,22.115 123.974,22.115 123.974,6.282 									"/>
								</defs>
								<use xlink:href="#SVGID_18_"  overflow="visible" fill="#070707"/>
								<clipPath id="SVGID_20_">
									<use xlink:href="#SVGID_18_"  overflow="visible"/>
								</clipPath>
								<g clip-path="url(#SVGID_20_)">
									<g>
										<rect id="SVGID_11_" x="-76.026" y="-63.718" fill="#070707" width="319.167" height="269.167"/>
									</g>
									<g>
										<defs>
											<rect id="SVGID_22_" x="-76.026" y="-63.718" width="319.167" height="269.167"/>
										</defs>
										<use xlink:href="#SVGID_22_"  overflow="visible" fill="#070707"/>
										<clipPath id="SVGID_24_">
											<use xlink:href="#SVGID_22_"  overflow="visible"/>
										</clipPath>
									</g>
								</g>
							</g>
							<g>
								<g>
									<g>
										<path id="SVGID_13_" fill="#070707" d="M158.974,11.395v-0.86c0-2.586-1.313-2.586-3.341-2.586h-9.993v5.833h9.993
											C157.712,13.782,158.974,13.782,158.974,11.395z M155.729,6.282c1.055,0,1.908,0.095,2.557,0.284
											c0.65,0.189,1.147,0.47,1.492,0.842c0.346,0.372,0.575,0.839,0.69,1.4s0.172,1.213,0.172,1.957v1.29
											c0,0.555-0.068,1.017-0.203,1.388c-0.135,0.372-0.324,0.671-0.568,0.897c-0.244,0.226-0.532,0.39-0.863,0.492
											c-0.331,0.102-0.686,0.175-1.065,0.219c0.501,0.146,0.917,0.288,1.248,0.471c0.332,0.182,0.589,0.404,0.772,0.667
											c0.182,0.262,0.31,0.55,0.385,0.864c0.074,0.314,0.112,0.653,0.112,1.017v4.046h-1.868v-3.478
											c0-0.612-0.068-1.443-0.203-1.814c-0.136-0.372-0.329-0.652-0.579-0.842c-0.251-0.19-0.559-0.313-0.924-0.372
											c-0.365-0.058-0.771-0.087-1.217-0.087h-10.106v6.593h-1.587V6.282H155.729z"/>
									</g>
									<g>
										<defs>
											<path id="SVGID_26_" d="M158.974,11.395v-0.86c0-2.586-1.313-2.586-3.341-2.586h-9.993v5.833h9.993
												C157.712,13.782,158.974,13.782,158.974,11.395z M155.729,6.282c1.055,0,1.908,0.095,2.557,0.284
												c0.65,0.189,1.147,0.47,1.492,0.842c0.346,0.372,0.575,0.839,0.69,1.4s0.172,1.213,0.172,1.957v1.29
												c0,0.555-0.068,1.017-0.203,1.388c-0.135,0.372-0.324,0.671-0.568,0.897c-0.244,0.226-0.532,0.39-0.863,0.492
												c-0.331,0.102-0.686,0.175-1.065,0.219c0.501,0.146,0.917,0.288,1.248,0.471c0.332,0.182,0.589,0.404,0.772,0.667
												c0.182,0.262,0.31,0.55,0.385,0.864c0.074,0.314,0.112,0.653,0.112,1.017v4.046h-1.868v-3.478
												c0-0.612-0.068-1.443-0.203-1.814c-0.136-0.372-0.329-0.652-0.579-0.842c-0.251-0.19-0.559-0.313-0.924-0.372
												c-0.365-0.058-0.771-0.087-1.217-0.087h-10.106v6.593h-1.587V6.282H155.729z"/>
										</defs>
										<use xlink:href="#SVGID_26_"  overflow="visible" fill="#070707"/>
										<clipPath id="SVGID_27_">
											<use xlink:href="#SVGID_26_"  overflow="visible"/>
										</clipPath>
										<g clip-path="url(#SVGID_27_)">
											<g>
												<rect id="SVGID_15_" x="-76.026" y="-63.718" fill="#070707" width="319.167" height="269.167"/>
											</g>
											<g>
												<defs>
													<rect id="SVGID_28_" x="-76.026" y="-63.718" width="319.167" height="269.167"/>
												</defs>
												<use xlink:href="#SVGID_28_"  overflow="visible" fill="#070707"/>
												<clipPath id="SVGID_30_">
													<use xlink:href="#SVGID_28_"  overflow="visible"/>
												</clipPath>
											</g>
										</g>
									</g>
									<g>
										<g>
											<g>
												<rect id="SVGID_17_" x="27.307" y="6.282" fill="#070707" width="4.167" height="15.833"/>
											</g>
											<g>
												<defs>
													<rect id="SVGID_31_" x="27.307" y="6.282" width="4.167" height="15.833"/>
												</defs>
												<use xlink:href="#SVGID_31_"  overflow="visible" fill="#070707"/>
												<clipPath id="SVGID_32_">
													<use xlink:href="#SVGID_31_"  overflow="visible"/>
												</clipPath>
												<g clip-path="url(#SVGID_32_)">
													<g>
														<rect id="SVGID_19_" x="-76.026" y="-63.718" fill="#070707" width="319.167" height="269.167"/>
													</g>
													<g>
														<defs>
															<rect id="SVGID_34_" x="-76.026" y="-63.718" width="319.167" height="269.167"/>
														</defs>
														<use xlink:href="#SVGID_34_"  overflow="visible" fill="#070707"/>
														<clipPath id="SVGID_35_">
															<use xlink:href="#SVGID_34_"  overflow="visible"/>
														</clipPath>
													</g>
												</g>
											</g>
											<g>
												<g>
													<g>
														<polyline id="SVGID_21_" fill="#070707" points="33.974,6.282 41.25,6.282 50.07,17.785 50.112,17.785 50.112,6.282 
															54.807,6.282 54.807,22.115 47.531,22.115 38.711,10.612 38.67,10.612 38.67,22.115 33.974,22.115 33.974,6.282 
																													"/>
													</g>
													<g>
														<defs>
															<polyline id="SVGID_36_" points="33.974,6.282 41.25,6.282 50.07,17.785 50.112,17.785 50.112,6.282 54.807,6.282 
																54.807,22.115 47.531,22.115 38.711,10.612 38.67,10.612 38.67,22.115 33.974,22.115 33.974,6.282 															
																"/>
														</defs>
														<use xlink:href="#SVGID_36_"  overflow="visible" fill="#070707"/>
														<clipPath id="SVGID_37_">
															<use xlink:href="#SVGID_36_"  overflow="visible"/>
														</clipPath>
														<g clip-path="url(#SVGID_37_)">
															<g>
																<rect id="SVGID_23_" x="-76.026" y="-63.718" fill="#070707" width="319.167" height="269.167"/>
															</g>
															<g>
																<defs>
																	<rect id="SVGID_38_" x="-76.026" y="-63.718" width="319.167" height="269.167"/>
																</defs>
																<use xlink:href="#SVGID_38_"  overflow="visible" fill="#070707"/>
																<clipPath id="SVGID_39_">
																	<use xlink:href="#SVGID_38_"  overflow="visible"/>
																</clipPath>
															</g>
														</g>
													</g>
													<g>
														<g>
															<g>
																<path id="SVGID_25_" fill="#070707" d="M70.318,18.597c0.475,0,0.878-0.044,1.208-0.132
																	c0.33-0.089,0.598-0.24,0.802-0.454c0.205-0.213,0.356-0.505,0.455-0.873c0.099-0.369,0.149-0.841,0.149-1.416
																	v-3.047c0-0.575-0.049-1.047-0.149-1.415c-0.099-0.369-0.25-0.66-0.455-0.874c-0.205-0.213-0.472-0.365-0.802-0.454
																	C71.196,9.844,70.793,9.8,70.318,9.8h-7.803v8.796L70.318,18.597L70.318,18.597z M71.697,6.282
																	c1.188,0,2.193,0.102,3.017,0.306c0.823,0.204,1.489,0.529,1.998,0.973c0.508,0.445,0.873,1.017,1.095,1.717
																	s0.334,1.539,0.334,2.515v4.812c0,0.977-0.112,1.814-0.334,2.515c-0.222,0.7-0.587,1.272-1.095,1.716
																	c-0.509,0.445-1.174,0.77-1.998,0.973c-0.824,0.205-1.829,0.306-3.017,0.306h-14.39V6.282H71.697z"/>
															</g>
															<g>
																<defs>
																	<path id="SVGID_40_" d="M70.318,18.597c0.475,0,0.878-0.044,1.208-0.132c0.33-0.089,0.598-0.24,0.802-0.454
																		c0.205-0.213,0.356-0.505,0.455-0.873c0.099-0.369,0.149-0.841,0.149-1.416v-3.047
																		c0-0.575-0.049-1.047-0.149-1.415c-0.099-0.369-0.25-0.66-0.455-0.874c-0.205-0.213-0.472-0.365-0.802-0.454
																		C71.196,9.844,70.793,9.8,70.318,9.8h-7.803v8.796L70.318,18.597L70.318,18.597z M71.697,6.282
																		c1.188,0,2.193,0.102,3.017,0.306c0.823,0.204,1.489,0.529,1.998,0.973c0.508,0.445,0.873,1.017,1.095,1.717
																		s0.334,1.539,0.334,2.515v4.812c0,0.977-0.112,1.814-0.334,2.515c-0.222,0.7-0.587,1.272-1.095,1.716
																		c-0.509,0.445-1.174,0.77-1.998,0.973c-0.824,0.205-1.829,0.306-3.017,0.306h-14.39V6.282H71.697z"/>
																</defs>
																<use xlink:href="#SVGID_40_"  overflow="visible" fill="#070707"/>
																<clipPath id="SVGID_41_">
																	<use xlink:href="#SVGID_40_"  overflow="visible"/>
																</clipPath>
																<g clip-path="url(#SVGID_41_)">
																	<g>
																		<defs>
																			<rect id="SVGID_42_" x="-76.026" y="-63.718" width="319.167" height="269.167"/>
																		</defs>
																		<use xlink:href="#SVGID_42_"  overflow="visible" fill="#070707"/>
																		<clipPath id="SVGID_43_">
																			<use xlink:href="#SVGID_42_"  overflow="visible"/>
																		</clipPath>
																	</g>
																</g>
															</g>
															<g>
																<g>
																	<g>
																		<polyline id="SVGID_29_" fill="#070707" points="106.969,14.177 100.312,6.282 106.101,6.282 110.641,11.815 
																			115.18,6.282 120.97,6.282 114.312,14.177 121.474,22.115 115.462,22.115 110.641,16.364 105.82,22.115 
																			99.807,22.115 106.969,14.177 																		"/>
																	</g>
																	<g>
																		<defs>
																			<polyline id="SVGID_44_" points="106.969,14.177 100.312,6.282 106.101,6.282 110.641,11.815 115.18,6.282 
																				120.97,6.282 114.312,14.177 121.474,22.115 115.462,22.115 110.641,16.364 105.82,22.115 99.807,22.115 
																				106.969,14.177 																			"/>
																		</defs>
																		<use xlink:href="#SVGID_44_"  overflow="visible" fill="#070707"/>
																		<clipPath id="SVGID_45_">
																			<use xlink:href="#SVGID_44_"  overflow="visible"/>
																		</clipPath>
																		<g clip-path="url(#SVGID_45_)">
																			<g>
																				<defs>
																					<rect id="SVGID_46_" x="-76.026" y="-63.718" width="319.167" height="269.167"/>
																				</defs>
																				<use xlink:href="#SVGID_46_"  overflow="visible" fill="#070707"/>
																				<clipPath id="SVGID_47_">
																					<use xlink:href="#SVGID_46_"  overflow="visible"/>
																				</clipPath>
																			</g>
																		</g>
																	</g>
																	<g>
																		<g>
																			<g>
																				<path id="SVGID_33_" fill="#070707" d="M94.633,11.083c-0.117-0.342-0.331-0.61-0.642-0.807
																					c-0.311-0.195-0.729-0.323-1.255-0.385C92.21,9.831,90.373,9.8,89.556,9.8c-0.914,0-2.58,0.031-3.115,0.092
																					c-0.535,0.062-0.944,0.19-1.226,0.385c-0.282,0.196-0.467,0.465-0.554,0.807
																					c-0.088,0.343-0.131,0.794-0.131,1.356h10.278C94.807,11.878,94.749,11.426,94.633,11.083z M80.273,9.804
																					c0.31-0.923,0.753-1.645,1.329-2.167c0.575-0.522,1.255-0.878,2.04-1.069c0.785-0.19,1.661-0.286,2.63-0.286
																					h4.814c1.387,0,2.583,0.096,3.588,0.286c1.003,0.191,1.821,0.532,2.451,1.024
																					c0.629,0.492,1.095,1.169,1.396,2.031c0.301,0.864,0.453,1.957,0.453,3.281v2.589H84.503v0.933
																					c0.165,2.077,1.769,2.077,3.232,2.077h3.609c0.713,0,1.269-0.05,1.671-0.151c0.402-0.1,0.699-0.23,0.89-0.391
																					c0.192-0.16,0.31-0.347,0.356-0.557c0.045-0.211,0.069-0.426,0.069-0.647h4.645v0.662
																					c0,0.964-0.184,1.752-0.549,2.363c-0.365,0.613-0.863,1.089-1.493,1.43c-0.63,0.342-1.365,0.578-2.204,0.708
																					c-0.84,0.131-1.735,0.196-2.684,0.196h-5.089c-0.876,0-1.739-0.071-2.587-0.211
																					c-0.85-0.14-1.613-0.461-2.287-0.963c-0.676-0.501-1.224-1.234-1.644-2.198c-0.42-0.963-0.63-2.267-0.63-3.913
																					v-1.475C79.807,11.911,79.962,10.727,80.273,9.804z"/>
																			</g>
																			<g>
																				<defs>
																					<path id="SVGID_48_" d="M94.633,11.083c-0.117-0.342-0.331-0.61-0.642-0.807
																						c-0.311-0.195-0.729-0.323-1.255-0.385C92.21,9.831,90.373,9.8,89.556,9.8c-0.914,0-2.58,0.031-3.115,0.092
																						c-0.535,0.062-0.944,0.19-1.226,0.385c-0.282,0.196-0.467,0.465-0.554,0.807
																						c-0.088,0.343-0.131,0.794-0.131,1.356h10.278C94.807,11.878,94.749,11.426,94.633,11.083z M80.273,9.804
																						c0.31-0.923,0.753-1.645,1.329-2.167c0.575-0.522,1.255-0.878,2.04-1.069c0.785-0.19,1.661-0.286,2.63-0.286
																						h4.814c1.387,0,2.583,0.096,3.588,0.286c1.003,0.191,1.821,0.532,2.451,1.024
																						c0.629,0.492,1.095,1.169,1.396,2.031c0.301,0.864,0.453,1.957,0.453,3.281v2.589H84.503v0.933
																						c0.165,2.077,1.769,2.077,3.232,2.077h3.609c0.713,0,1.269-0.05,1.671-0.151c0.402-0.1,0.699-0.23,0.89-0.391
																						c0.192-0.16,0.31-0.347,0.356-0.557c0.045-0.211,0.069-0.426,0.069-0.647h4.645v0.662
																						c0,0.964-0.184,1.752-0.549,2.363c-0.365,0.613-0.863,1.089-1.493,1.43c-0.63,0.342-1.365,0.578-2.204,0.708
																						c-0.84,0.131-1.735,0.196-2.684,0.196h-5.089c-0.876,0-1.739-0.071-2.587-0.211
																						c-0.85-0.14-1.613-0.461-2.287-0.963c-0.676-0.501-1.224-1.234-1.644-2.198c-0.42-0.963-0.63-2.267-0.63-3.913
																						v-1.475C79.807,11.911,79.962,10.727,80.273,9.804z"/>
																				</defs>
																				<use xlink:href="#SVGID_48_"  overflow="visible" fill="#070707"/>
																				<clipPath id="SVGID_49_">
																					<use xlink:href="#SVGID_48_"  overflow="visible"/>
																				</clipPath>
																				<g clip-path="url(#SVGID_49_)">
																					<g>
																						<defs>
																							<rect id="SVGID_50_" x="-76.026" y="-63.718" width="319.167" height="269.167"/>
																						</defs>
																						<use xlink:href="#SVGID_50_"  overflow="visible" fill="#070707"/>
																						<clipPath id="SVGID_51_">
																							<use xlink:href="#SVGID_50_"  overflow="visible"/>
																						</clipPath>
																					</g>
																				</g>
																			</g>
																		</g>
																	</g>
																</g>
															</g>
														</g>
													</g>
												</g>
											</g>
										</g>
									</g>
								</g>
							</g>
						</g>
					</g>
				</g>
			</g>
		</g>
	</g>
</g>
<g id="Layer_1">
	<g>
		<g>
			<defs>
				<rect id="SVGID_52_" x="27.307" y="6.291" width="4.162" height="15.815"/>
			</defs>
			<use xlink:href="#SVGID_52_"  overflow="visible" fill-rule="evenodd" clip-rule="evenodd" fill="#FFFFFF"/>
			<clipPath id="SVGID_53_">
				<use xlink:href="#SVGID_52_"  overflow="visible"/>
			</clipPath>
			<g clip-path="url(#SVGID_53_)">
				<defs>
					<rect id="SVGID_54_" x="-75.907" y="-116.9" width="318.798" height="268.856"/>
				</defs>
				<use xlink:href="#SVGID_54_"  overflow="visible" fill="#FFFFFF"/>
				<clipPath id="SVGID_55_">
					<use xlink:href="#SVGID_54_"  overflow="visible"/>
				</clipPath>
			</g>
		</g>
	</g>
	<g>
		<g>
			<defs>
				<polyline id="SVGID_56_" points="33.966,6.291 41.233,6.291 50.043,17.781 50.085,17.781 50.085,6.291 54.775,6.291 
					54.775,22.106 47.507,22.106 38.698,10.616 38.656,10.616 38.656,22.106 33.966,22.106 33.966,6.291 				"/>
			</defs>
			<use xlink:href="#SVGID_56_"  overflow="visible" fill-rule="evenodd" clip-rule="evenodd" fill="#FFFFFF"/>
			<clipPath id="SVGID_57_">
				<use xlink:href="#SVGID_56_"  overflow="visible"/>
			</clipPath>
			<g clip-path="url(#SVGID_57_)">
				<defs>
					<rect id="SVGID_58_" x="-75.907" y="-116.9" width="318.798" height="268.856"/>
				</defs>
				<use xlink:href="#SVGID_58_"  overflow="visible" fill="#FFFFFF"/>
				<clipPath id="SVGID_59_">
					<use xlink:href="#SVGID_58_"  overflow="visible"/>
				</clipPath>
			</g>
		</g>
	</g>
	<g>
		<g>
			<defs>
				<path id="SVGID_60_" d="M70.268,18.592c0.475,0,0.877-0.044,1.207-0.132c0.33-0.088,0.597-0.239,0.801-0.453
					c0.204-0.213,0.356-0.504,0.455-0.872c0.099-0.369,0.149-0.84,0.149-1.414v-3.043c0-0.574-0.049-1.046-0.149-1.414
					c-0.099-0.368-0.25-0.659-0.455-0.873c-0.204-0.213-0.472-0.364-0.801-0.453c-0.33-0.089-0.732-0.132-1.207-0.132h-7.793v8.786
					H70.268z M71.646,6.291c1.187,0,2.191,0.102,3.014,0.306c0.822,0.204,1.487,0.528,1.995,0.972
					c0.508,0.445,0.872,1.016,1.094,1.715c0.222,0.699,0.333,1.537,0.333,2.512v4.806c0,0.975-0.111,1.812-0.333,2.512
					c-0.222,0.699-0.586,1.271-1.094,1.714c-0.508,0.445-1.173,0.769-1.995,0.972c-0.823,0.205-1.827,0.306-3.014,0.306H57.272
					V6.291H71.646z"/>
			</defs>
			<use xlink:href="#SVGID_60_"  overflow="visible" fill-rule="evenodd" clip-rule="evenodd" fill="#FFFFFF"/>
			<clipPath id="SVGID_61_">
				<use xlink:href="#SVGID_60_"  overflow="visible"/>
			</clipPath>
			<g clip-path="url(#SVGID_61_)">
				<defs>
					<rect id="SVGID_62_" x="-75.907" y="-116.9" width="318.798" height="268.856"/>
				</defs>
				<use xlink:href="#SVGID_62_"  overflow="visible" fill="#FFFFFF"/>
				<clipPath id="SVGID_63_">
					<use xlink:href="#SVGID_62_"  overflow="visible"/>
				</clipPath>
				<rect x="53.111" y="2.129" clip-path="url(#SVGID_63_)" fill="#FFFFFF" width="29.133" height="24.139"/>
			</g>
		</g>
	</g>
	<g>
		<g>
			<defs>
				<polyline id="SVGID_64_" points="106.877,14.177 100.228,6.291 106.01,6.291 110.544,11.817 115.079,6.291 120.861,6.291 
					114.211,14.177 121.365,22.106 115.36,22.106 110.544,16.361 105.729,22.106 99.723,22.106 106.877,14.177 				"/>
			</defs>
			<use xlink:href="#SVGID_64_"  overflow="visible" fill-rule="evenodd" clip-rule="evenodd" fill="#FFFFFF"/>
			<clipPath id="SVGID_65_">
				<use xlink:href="#SVGID_64_"  overflow="visible"/>
			</clipPath>
			<g clip-path="url(#SVGID_65_)">
				<defs>
					<rect id="SVGID_66_" x="-75.907" y="-116.9" width="318.798" height="268.856"/>
				</defs>
				<use xlink:href="#SVGID_66_"  overflow="visible" fill="#FFFFFF"/>
				<clipPath id="SVGID_67_">
					<use xlink:href="#SVGID_66_"  overflow="visible"/>
				</clipPath>
			</g>
		</g>
	</g>
	<g>
		<defs>
			<path id="SVGID_68_" d="M94.554,11.087c-0.117-0.341-0.33-0.61-0.642-0.806c-0.311-0.195-0.728-0.323-1.253-0.384
				c-0.525-0.061-2.359-0.092-3.176-0.092c-0.913,0-2.577,0.031-3.111,0.092c-0.534,0.061-0.943,0.189-1.224,0.384
				c-0.282,0.196-0.467,0.464-0.553,0.806c-0.088,0.342-0.131,0.793-0.131,1.354h10.266C94.729,11.88,94.671,11.429,94.554,11.087z
				 M80.211,9.809c0.31-0.922,0.752-1.643,1.327-2.164c0.574-0.521,1.253-0.877,2.038-1.068c0.784-0.19,1.659-0.285,2.627-0.285
				h4.808c1.385,0,2.58,0.096,3.584,0.285c1.001,0.191,1.819,0.532,2.448,1.023c0.628,0.491,1.094,1.168,1.395,2.029
				c0.301,0.863,0.452,1.955,0.452,3.277v2.586H84.436v0.932c0.165,2.075,1.767,2.075,3.228,2.075h3.605
				c0.712,0,1.267-0.05,1.669-0.15c0.402-0.1,0.698-0.23,0.889-0.391c0.192-0.16,0.31-0.346,0.356-0.556
				c0.045-0.211,0.069-0.426,0.069-0.646h4.639v0.661c0,0.962-0.184,1.75-0.548,2.36c-0.365,0.612-0.862,1.088-1.491,1.428
				c-0.629,0.341-1.363,0.577-2.202,0.707c-0.839,0.13-1.733,0.195-2.681,0.195h-5.083c-0.875,0-1.737-0.071-2.584-0.211
				c-0.849-0.14-1.611-0.46-2.285-0.962c-0.675-0.501-1.222-1.233-1.642-2.195c-0.42-0.962-0.629-2.264-0.629-3.909v-1.473
				C79.746,11.913,79.901,10.731,80.211,9.809z"/>
		</defs>
		<use xlink:href="#SVGID_68_"  overflow="visible" fill-rule="evenodd" clip-rule="evenodd" fill="#FFFFFF"/>
		<clipPath id="SVGID_69_">
			<use xlink:href="#SVGID_68_"  overflow="visible"/>
		</clipPath>
		<g clip-path="url(#SVGID_69_)">
			<defs>
				<rect id="SVGID_70_" x="-75.907" y="-116.9" width="318.798" height="268.856"/>
			</defs>
			<use xlink:href="#SVGID_70_"  overflow="visible" fill="#FFFFFF"/>
			<clipPath id="SVGID_71_">
				<use xlink:href="#SVGID_70_"  overflow="visible"/>
			</clipPath>
			<rect x="75.585" y="2.129" clip-path="url(#SVGID_71_)" fill="#FFFFFF" width="27.468" height="24.139"/>
		</g>
	</g>
	<path fill-rule="evenodd" clip-rule="evenodd" fill="#FFFFFF" d="M18.089,5.647c0.243-0.961,0.609-1.912,1.106-2.829L19.6,2.131
		c0.254-0.44,0.326-1.021-0.231-1.343c-0.774-0.447-1.449,0.724-1.449,0.724c-0.661,1.187-1.022,2.523-1.108,3.885
		c-0.104-0.006-0.209-0.011-0.318-0.011c-2.543,0-3.626,1.531-3.626,4.193c0,0.111,0,0.757,0,0.993
		c0,6.269-5.133,11.352-11.466,11.352c-0.298,0-0.593-0.011-0.885-0.033c2.077,1.268,4.528,1.995,7.19,1.995
		c6.942,0,12.925-5.76,12.99-14.014C20.692,9.8,20.694,6.592,18.089,5.647z M8.925,21.363c3.318-2.498,5.839-5.886,5.83-10.889
		c0.009-0.488,0.393-0.883,0.874-0.883c0.477,0,0.864,0.4,0.864,0.873C16.485,15.402,13.233,19.604,8.925,21.363z"/>
	<g>
		<path fill="#FFFFFF" d="M129.46,22.144l-6.074-15.883h2.057l5.129,13.898l5.129-13.898h2.057l-6.075,15.883H129.46z"/>
		<path fill="#FFFFFF" d="M142.15,6.261v15.883h-1.962V6.261H142.15z"/>
		<path fill="#FFFFFF" d="M147.538,22.427c-1.016,0-1.914-0.094-2.741-0.307v-1.584c0.851,0.189,1.678,0.308,2.458,0.308
			c2.363,0,3.309-0.97,3.309-3.356V6.261h1.962v11.298C152.525,20.962,151.037,22.427,147.538,22.427z"/>
		<path fill="#FFFFFF" d="M166.54,6.261v1.513h-8.698v5.554h6.996v1.466h-6.996v5.838h8.887v1.513h-10.849V6.261H166.54z"/>
		<path fill="#FFFFFF" d="M174.691,5.977c1.631,0,3.215,0.236,4.751,0.686v1.583c-1.513-0.473-3.049-0.709-4.608-0.709
			c-2.86,0-4.019,0.804-4.019,2.812c0,4.349,9.454,1.347,9.454,7.564c0,3.19-1.726,4.514-5.956,4.514
			c-1.867,0-3.64-0.236-5.342-0.779v-1.607c1.726,0.567,3.428,0.827,5.2,0.827c2.931,0,4.112-0.804,4.112-2.907
			c0-4.515-9.478-1.536-9.478-7.563C168.806,7.301,170.555,5.977,174.691,5.977z"/>
		<path fill="#FFFFFF" d="M181.212,7.821v-1.56h13.023v1.56h-5.53v14.323h-1.962V7.821H181.212z"/>
		<path fill="#FFFFFF" d="M198.441,6.261v15.883h-1.962V6.261H198.441z"/>
	</g>
</g>
</svg>
